<svg width="75" height="75" viewBox="0 0 75 75" fill="none" xmlns="http://www.w3.org/2000/svg">
<path fill-rule="evenodd" clip-rule="evenodd" d="M37.5 75C58.2107 75 75 58.2107 75 37.5C75 16.7893 58.2107 0 37.5 0C16.7893 0 0 16.7893 0 37.5C0 58.2107 16.7893 75 37.5 75Z" fill="#3A3B3B"/>
<rect opacity="0.01" x="17.5" y="17.5" width="40" height="40" fill="white"/>
<path fill-rule="evenodd" clip-rule="evenodd" d="M35.4248 36.7805C35.0261 36.7828 34.6429 36.6263 34.3598 36.3455L31.1799 33.1656C30.6703 32.5705 30.7045 31.6833 31.2586 31.1293C31.8126 30.5753 32.6997 30.541 33.2949 31.0507L36.4748 34.2306C36.9074 34.6597 37.0375 35.3079 36.8038 35.8708C36.5701 36.4336 36.0192 36.799 35.4098 36.7955L35.4248 36.7805ZM47.6044 52.3951C48.292 51.9312 48.4733 50.9977 48.0094 50.3101C47.5455 49.6226 46.612 49.4413 45.9244 49.9052C39.4931 54.2916 30.786 53.1017 25.7674 47.1506C20.7488 41.1994 21.0455 32.4164 26.4545 26.8176C31.8634 21.2189 40.6309 20.6195 46.7515 25.43C52.872 30.2406 54.3614 38.9015 50.1993 45.4803C49.9126 45.9331 49.8893 46.5045 50.1381 46.9792C50.3869 47.4539 50.87 47.7598 51.4055 47.7817C51.941 47.8035 52.4475 47.5381 52.7342 47.0852C57.6455 39.2793 55.8624 29.0242 48.6045 23.3343C41.3466 17.6444 30.9622 18.3608 24.5544 24.9934C18.1466 31.6261 17.7886 42.029 23.7253 49.0865C29.662 56.144 39.9725 57.5726 47.6044 52.3951ZM33.2949 43.8303L36.4748 40.6504C36.9844 40.0553 36.9501 39.1681 36.3961 38.6141C35.8421 38.0601 34.9549 38.0258 34.3598 38.5355L31.1799 41.7154C30.7519 42.0819 30.5654 42.6575 30.6972 43.2055C30.829 43.7534 31.2568 44.1812 31.8048 44.313C32.3527 44.4448 32.9283 44.2584 33.2949 43.8303ZM43.8995 43.8303C44.4811 43.2453 44.4811 42.3004 43.8995 41.7154L40.7196 38.5355C40.353 38.1074 39.7775 37.921 39.2295 38.0528C38.6816 38.1846 38.2538 38.6124 38.122 39.1603C37.9902 39.7083 38.1766 40.2838 38.6047 40.6504L41.7846 43.8303C42.3696 44.4119 43.3145 44.4119 43.8995 43.8303ZM40.7196 36.4055L43.8995 33.2256C44.4092 32.6305 44.3749 31.7433 43.8209 31.1893C43.2668 30.6353 42.3797 30.601 41.7846 31.1107L38.6047 34.2906C38.1766 34.6571 37.9902 35.2327 38.122 35.7807C38.2538 36.3286 38.6816 36.7564 39.2295 36.8882C39.7775 37.02 40.353 36.8336 40.7196 36.4055Z" fill="white"/>
</svg>
